<?xml version="1.0" encoding="UTF-8" standalone="no"?>
<!DOCTYPE svg PUBLIC "-//W3C//DTD SVG 1.1//EN" "http://www.w3.org/Graphics/SVG/1.1/DTD/svg11.dtd">
<svg width="100%" height="100%" viewBox="0 0 166 35" version="1.1" xmlns="http://www.w3.org/2000/svg" xmlns:xlink="http://www.w3.org/1999/xlink" xml:space="preserve" xmlns:serif="http://www.serif.com/" style="fill-rule:evenodd;clip-rule:evenodd;stroke-linejoin:round;stroke-miterlimit:2;">
    <g transform="matrix(1,0,0,1,-30.4532,-14.4866)">
        <g transform="matrix(-1.01113,-1.23827e-16,1.23827e-16,-1.01113,81.0096,51.9562)">
            <g transform="matrix(-0.440114,-5.38984e-17,5.38984e-17,-0.440114,126.323,78.8681)">
                <path d="M195.5,95L217.584,107.75L217.584,133.25L195.5,146L173.416,133.25L173.416,107.75L195.5,95Z" style="fill:url(#_Linear1);"/>
            </g>
            <g transform="matrix(1,0,0,1,9.71932,-5.61145)">
                <path d="M30.561,20.223L40.281,25.834L40.281,37.057L30.561,31.446L30.561,20.223L30.561,20.223Z" style="fill:url(#_Linear2);"/>
            </g>
        </g>
        <g transform="matrix(1.77697,0,0,3.3001,-38.6351,-58.8134)">
            <g>
                <g id="font" transform="matrix(0.588381,0,0,0.316821,31.7425,17.171)">
                    <path d="M137.236,23.171L140.586,23.171L140.586,24.903L137.236,24.903L137.236,32.319C137.236,33.381 137.745,33.728 138.391,33.728C138.946,33.728 139.593,33.474 140.193,33.15L140.817,34.375C139.777,35.137 138.738,35.53 137.583,35.53C136.197,35.53 134.926,34.767 134.926,32.18L134.926,24.903L132.616,24.903L132.616,23.402L134.926,23.171L134.926,20.26L137.236,19.798L137.236,23.171ZM63.129,35.137C63.199,35.114 63.245,35.021 63.222,34.883L63.083,33.474C63.06,33.335 62.898,33.358 62.783,33.381C62.205,33.543 61.189,33.682 60.38,33.682C57.308,33.682 56.731,31.857 56.731,27.583C56.731,23.032 57.308,21.207 60.38,21.207C61.328,21.207 62.344,21.392 62.898,21.6C63.014,21.646 63.083,21.554 63.083,21.484L63.176,19.96C63.176,19.821 63.153,19.798 63.06,19.752C62.483,19.544 61.466,19.359 60.126,19.359C55.83,19.359 54.42,22.524 54.42,27.56C54.42,32.688 55.83,35.53 60.126,35.53C61.258,35.53 62.39,35.368 63.129,35.137ZM85.491,26.636L83.989,26.636L83.874,23.748C83.874,23.748 86.415,22.824 88.378,22.824C91.058,22.824 92.652,23.748 92.652,26.405L92.652,33.451L94.5,33.913L94.5,35.183L90.92,35.299L90.434,33.682C89.649,34.467 88.263,35.53 86.646,35.53C84.451,35.53 83.181,34.259 83.181,32.065C83.181,29.408 85.26,28.484 88.494,28.484L90.342,28.484L90.342,26.636C90.342,25.25 89.534,24.557 88.147,24.557C86.761,24.557 85.814,24.903 85.814,24.903L85.491,26.636ZM109.631,33.913L107.668,33.451L107.668,23.055L103.394,23.171L103.394,24.441L105.357,24.903L105.357,31.741C105.357,31.741 103.971,33.566 102.008,33.566C100.506,33.566 99.929,32.781 99.929,31.164L99.929,23.055L95.655,23.171L95.655,24.441L97.619,24.903L97.619,31.395C97.619,33.936 98.774,35.53 101.315,35.53C103.209,35.53 105.034,34.167 105.588,33.682L105.819,35.299L109.631,35.183L109.631,33.913ZM51.417,27.444C51.417,24.511 50.886,22.016 49.939,20.814C49.015,19.659 47.744,19.359 45.619,19.359C43.517,19.359 42.177,19.659 41.253,20.814C40.306,22.016 39.775,24.511 39.775,27.444C39.775,30.378 40.306,32.873 41.253,34.074C42.177,35.229 43.448,35.53 45.573,35.53C47.675,35.53 49.015,35.229 49.939,34.074C50.886,32.873 51.417,30.378 51.417,27.444ZM123.838,33.913L121.874,33.451L121.874,17.511L117.601,17.627L117.601,18.897L119.564,19.359L119.564,23.194C118.964,22.986 118.225,22.824 117.37,22.824C113.212,22.824 111.248,25.596 111.248,29.523C111.248,33.104 112.75,35.53 116.099,35.53C117.855,35.53 119.056,34.652 119.726,33.982L119.911,35.299L123.838,35.183L123.838,33.913ZM131.346,34.028L129.613,33.451L129.613,23.055L125.34,23.171L125.34,24.441L127.303,24.903L127.303,33.451L125.34,34.028L125.34,35.299L131.346,35.299L131.346,34.028ZM68.258,35.299L66.456,35.299C66.317,35.299 66.225,35.206 66.225,35.068L66.225,19.821C66.225,19.683 66.317,19.59 66.456,19.59L70.73,19.59C74.056,19.59 75.604,20.884 75.604,23.933C75.604,26.266 75.003,27.583 73.201,28.484C73.155,28.507 73.063,28.623 73.109,28.692L76.921,35.045C77.013,35.183 76.944,35.299 76.805,35.299L74.564,35.299C74.426,35.299 74.379,35.229 74.287,35.091L71.03,29.269C70.984,29.2 70.891,29.154 70.799,29.131L68.627,29.131C68.535,29.131 68.489,29.177 68.489,29.269L68.489,35.068C68.489,35.206 68.396,35.299 68.258,35.299ZM87.223,33.682C87.857,33.682 88.444,33.434 88.934,33.121L88.94,33.117L88.947,33.113C89.019,33.066 89.089,33.018 89.157,32.97L89.167,32.963C89.186,32.949 89.205,32.935 89.224,32.921L89.226,32.919L89.232,32.914L89.24,32.909L89.249,32.902L89.254,32.898L89.266,32.889L89.268,32.887L89.277,32.881L89.283,32.876L89.291,32.87C89.301,32.862 89.312,32.854 89.323,32.845C89.334,32.836 89.346,32.827 89.358,32.818C89.965,32.337 90.342,31.834 90.342,31.834L90.342,29.985L88.725,29.985C88.54,29.985 88.365,29.989 88.198,29.997C88.014,30.005 87.842,30.018 87.68,30.035C87.662,30.037 87.644,30.039 87.627,30.041C87.524,30.053 87.424,30.068 87.33,30.084L87.31,30.087L87.291,30.09C87.133,30.118 86.987,30.152 86.852,30.192L86.844,30.195C86.759,30.22 86.679,30.248 86.603,30.278L86.596,30.281C85.851,30.581 85.537,31.121 85.537,31.949C85.537,32.989 86.184,33.682 87.223,33.682ZM42.085,27.444C42.085,24.973 42.362,22.639 42.986,21.854C43.448,21.277 44.118,21.207 45.619,21.207C47.074,21.207 47.744,21.277 48.206,21.854C48.83,22.639 49.107,24.973 49.107,27.444C49.107,29.916 48.83,32.249 48.206,33.035C47.744,33.612 47.074,33.682 45.573,33.682C44.118,33.682 43.448,33.612 42.986,33.035C42.362,32.249 42.085,29.916 42.085,27.444ZM119.564,31.949C119.564,31.949 118.525,33.682 116.561,33.682C114.482,33.682 113.674,31.834 113.674,29.292C113.674,26.751 114.459,24.672 117.139,24.672C118.756,24.672 119.564,25.134 119.564,25.134L119.564,31.949ZM70.037,21.277L68.627,21.277C68.535,21.277 68.489,21.323 68.489,21.415L68.489,27.329C68.489,27.421 68.535,27.467 68.627,27.467L70.037,27.467C72.508,27.467 73.271,26.497 73.271,24.28C73.271,21.808 72.601,21.277 70.037,21.277Z" style="fill:rgb(38,48,69);fill-rule:nonzero;"/>
                </g>
                <g id="dot" transform="matrix(0.588381,0,0,0.316821,31.7425,17.171)">
                    <path d="M126.841,19.244C126.841,20.283 127.419,20.861 128.343,20.861C129.036,20.861 129.844,20.283 129.844,19.244C129.844,18.089 129.267,17.627 128.343,17.627C127.534,17.627 126.841,18.204 126.841,19.244Z" style="fill:rgb(38,211,133);fill-rule:nonzero;"/>
                </g>
            </g>
        </g>
        <path id="constraint" d="M195.5,49L195,49L195.5,49Z" style="fill:none;"/>
    </g>
    <defs>
        <linearGradient id="_Linear1" x1="0" y1="0" x2="1" y2="0" gradientUnits="userSpaceOnUse" gradientTransform="matrix(28.9001,25.5,-25.5,28.9001,195.5,107.75)"><stop offset="0" style="stop-color:rgb(242,253,206);stop-opacity:1"/><stop offset="1" style="stop-color:rgb(38,211,133);stop-opacity:1"/></linearGradient>
        <linearGradient id="_Linear2" x1="0" y1="0" x2="1" y2="0" gradientUnits="userSpaceOnUse" gradientTransform="matrix(-13.2807,-22.4458,22.4458,-13.2807,40.2807,37.0573)"><stop offset="0" style="stop-color:rgb(242,253,206);stop-opacity:1"/><stop offset="1" style="stop-color:rgb(255,95,72);stop-opacity:1"/></linearGradient>
    </defs>
</svg>
